<svg xmlns="http://www.w3.org/2000/svg" viewBox="0 0 280 60" fill="none">
  <!-- Book shape -->
  <path d="M10 48c0 0 12-6 20-6s20 6 20 6V12c0 0-12-6-20-6S10 12 10 12V48z" fill="url(#bookGrad)" opacity="0.9"/>
  <path d="M30 6v42" stroke="#0ea5e9" stroke-width="1.5"/>

  <!-- Robot head -->
  <circle cx="30" cy="18" r="11" fill="#1e3a5f"/>
  <circle cx="26" cy="16" r="3" fill="#67e8f9"/>
  <circle cx="34" cy="16" r="3" fill="#67e8f9"/>
  <circle cx="26" cy="16" r="1.2" fill="white"/>
  <circle cx="34" cy="16" r="1.2" fill="white"/>
  <path d="M25 22c0 0 2 3 5 3s5-3 5-3" stroke="#67e8f9" stroke-width="1.5" stroke-linecap="round"/>

  <!-- Circuit lines -->
  <path d="M19 10L14 5M14 5L14 2M14 5L11 5" stroke="#0ea5e9" stroke-width="1.5" stroke-linecap="round"/>
  <circle cx="14" cy="2" r="1.5" fill="#0ea5e9"/>
  <circle cx="11" cy="5" r="1.5" fill="#0ea5e9"/>

  <path d="M41 10L46 5M46 5L46 2M46 5L49 5" stroke="#10b981" stroke-width="1.5" stroke-linecap="round"/>
  <circle cx="46" cy="2" r="1.5" fill="#10b981"/>
  <circle cx="49" cy="5" r="1.5" fill="#10b981"/>

  <!-- Text: Haleel -->
  <text x="60" y="38" font-family="system-ui, -apple-system, sans-serif" font-size="32" font-weight="800" fill="#1e3a5f">Haleel</text>
  <!-- Text: AI -->
  <text x="195" y="38" font-family="system-ui, -apple-system, sans-serif" font-size="32" font-weight="800" fill="#10b981">AI</text>

  <defs>
    <linearGradient id="bookGrad" x1="10" y1="6" x2="50" y2="48">
      <stop offset="0%" stop-color="#0ea5e9"/>
      <stop offset="100%" stop-color="#10b981"/>
    </linearGradient>
  </defs>
</svg>